<svg width="64" height="64" viewBox="0 0 64 64" fill="none" xmlns="http://www.w3.org/2000/svg">
<path d="M48.079 29.5425C47.878 29.1545 47.457 28.9335 47.027 28.9725C46.593 29.0165 46.229 29.3195 46.109 29.7405C44.954 33.7815 41.964 34.9915 39.671 34.4015C38.005 33.9735 36.555 32.5305 37.071 30.2695C37.188 29.7555 37.308 29.2525 37.425 28.7575C38.957 22.3095 40.279 16.7395 31.852 8.31248C31.584 8.04348 31.192 7.93848 30.825 8.03548C30.458 8.13248 30.171 8.41848 30.071 8.78548C28.417 14.8515 24.979 18.8595 21.655 22.7365C17.718 27.3265 14 31.6625 14 38.6655C14 46.1845 18.553 52.6545 25.046 55.4775C25.443 55.6495 25.78 55.1575 25.478 54.8475C23.822 53.1445 22.696 50.9275 22.569 48.6265C22.309 43.8905 24.609 40.0615 28.302 36.9895C26.963 48.6745 34.35 49.3025 41.061 47.5045C40.915 50.5555 39.698 53.3945 37.887 55.3515C37.619 55.6415 37.932 56.1065 38.305 55.9775C45.487 53.4945 50.665 46.6815 50.665 38.6655C50.665 34.8315 48.685 30.7135 48.079 29.5425Z" fill="#F38BA8"/>
</svg>
