<svg width="64" height="64" viewBox="0 0 64 64" fill="none" xmlns="http://www.w3.org/2000/svg">
<path d="M35.6035 55.9955H27.6035C26.4995 55.9955 25.6035 55.0995 25.6035 53.9955C25.6035 52.8915 26.4995 51.9955 27.6035 51.9955H35.6035C36.7075 51.9955 37.6035 52.8915 37.6035 53.9955C37.6035 55.0995 36.7075 55.9955 35.6035 55.9955Z" fill="#CBA6F7"/>
<path d="M42.3215 11.9185C38.5845 8.75545 33.6325 7.41645 28.7385 8.23545C21.5075 9.45145 16.0395 15.1775 15.1315 22.4865C14.4785 27.7475 16.2785 32.8625 20.0705 36.5225C21.3345 37.7425 22.0305 39.3325 22.0305 41.0005V42.7505C22.0305 46.6685 25.2185 49.8555 29.1365 49.8555H34.0695C37.9875 49.8555 41.1755 46.6675 41.1755 42.7505V41.0255C41.1755 39.3535 41.8665 37.7345 43.0715 36.5845C46.3825 33.4225 48.2065 29.1655 48.2065 24.5995C48.2065 19.7045 46.0615 15.0825 42.3215 11.9185ZM40.0505 24.1645C39.9005 24.1995 39.7495 24.2155 39.6015 24.2155C38.6895 24.2155 37.8665 23.5885 37.6535 22.6615C37.2325 20.8245 35.7735 19.3655 33.9365 18.9445C32.8595 18.6985 32.1865 17.6255 32.4335 16.5485C32.6805 15.4715 33.7515 14.7955 34.8295 15.0455C38.1525 15.8065 40.7905 18.4445 41.5525 21.7685C41.7995 22.8445 41.1275 23.9175 40.0505 24.1645Z" fill="#CBA6F7"/>
</svg>
