<svg width="64" height="64" viewBox="0 0 64 64" fill="none" xmlns="http://www.w3.org/2000/svg">
<path d="M51.6513 45.023L49.4343 42.251C48.3323 40.874 47.7263 39.145 47.7263 37.381V30.818C47.7263 23.701 43.1023 17.655 36.7053 15.495C37.1233 14.693 37.3633 13.784 37.3633 12.818C37.3633 9.61 34.7533 7 31.5453 7C28.3373 7 25.7273 9.61 25.7273 12.818C25.7273 13.783 25.9673 14.692 26.3853 15.495C19.9883 17.656 15.3643 23.702 15.3643 30.818V37.381C15.3643 39.145 14.7573 40.874 13.6553 42.252L11.4383 45.023C10.9583 45.623 10.8643 46.445 11.1973 47.138C11.5303 47.831 12.2313 48.272 13.0003 48.272H50.0893C50.8583 48.272 51.5593 47.832 51.8923 47.138C52.2253 46.445 52.1313 45.623 51.6513 45.023ZM29.7263 12.817C29.7263 11.815 30.5423 10.999 31.5443 10.999C32.5463 10.999 33.3623 11.815 33.3623 12.817C33.3623 13.819 32.5463 14.635 31.5443 14.635C30.5423 14.635 29.7263 13.82 29.7263 12.817Z" fill="#A6E3A1"/>
<path d="M37.8933 50.272H25.1953C24.5393 50.272 24.0383 50.899 24.2233 51.528C25.1553 54.693 28.0743 56.999 31.5433 56.999C35.0123 56.999 37.9323 54.692 38.8633 51.528C39.0483 50.899 38.5473 50.272 37.8913 50.272H37.8933Z" fill="#A6E3A1"/>
</svg>
